<?xml version="1.0" encoding="iso-8859-1"?>
<!-- Generator: Adobe Illustrator 18.0.0, SVG Export Plug-In . SVG Version: 6.00 Build 0)  -->
<!DOCTYPE svg PUBLIC "-//W3C//DTD SVG 1.1//EN" "http://www.w3.org/Graphics/SVG/1.1/DTD/svg11.dtd">
<svg version="1.1" id="Capa_1" xmlns="http://www.w3.org/2000/svg" xmlns:xlink="http://www.w3.org/1999/xlink" x="0px" y="0px"
	 viewBox="0 0 58 58" style="enable-background:new 0 0 58 58;" xml:space="preserve">
<g>
	<path style="fill:#E6E6E6;" d="M54.074,29.568c0.479,0.707,0.403,1.444,0.403,2.204c0,0.018-0.004,0.037-0.004,0.055
		c0,0.015,0.004,0.029,0.004,0.044c0,5.094-11.406,9.677-25.476,9.677S3.524,36.965,3.524,31.871c0-0.015,0.004-0.029,0.004-0.044
		c0-0.018-0.004-0.037-0.004-0.055c0-0.76-0.143-1.498,0.336-2.204C1.158,31.163,0,33.04,0,35.048C0,40.847,8.5,48,29,48
		c22.625,0,29-7.153,29-12.952C58,33.04,56.775,31.163,54.074,29.568z"/>
	<path style="fill:#231F20;" d="M35,40.548c-2.206,0-4-1.794-4-4c0-0.553,0.447-1,1-1s1,0.447,1,1c0,1.103,0.897,2,2,2s2-0.897,2-2
		c0-0.553,0.447-1,1-1s1,0.447,1,1C39,38.754,37.206,40.548,35,40.548z"/>
	<path style="fill:#FBD490;" d="M4.128,29.888c-0.388,0.639-0.604,1.302-0.604,1.983c0,5.094,11.406,9.677,25.476,9.677
		s25.476-4.583,25.476-9.677c0-0.681-0.216-1.344-0.604-1.983H4.128z"/>
	<path style="fill:#FBD490;" d="M4.128,29.888c-0.388,0.639-0.604,1.302-0.604,1.983c0,5.094,11.406,9.677,25.476,9.677
		s25.476-4.583,25.476-9.677c0-0.681-0.216-1.344-0.604-1.983H4.128z"/>
	<path style="fill:#D8B173;" d="M4.128,26c-0.388,0.639-0.604,1.302-0.604,1.983c0,5.094,11.406,9.677,25.476,9.677
		s25.476-4.583,25.476-9.677c0-0.681-0.216-1.344-0.604-1.983H4.128z"/>
	<path style="fill:#A46F3E;" d="M53.872,17.868C51.012,13.685,41.435,10,29,10S6.988,13.685,4.128,17.868
		c-0.388,0.639-0.604,1.302-0.604,1.983c0,4.85,10.342,9.234,23.476,9.643v3.554c0,1.375,1.125,2.5,2.5,2.5s2.5-1.125,2.5-2.5v3.5
		c0,1.65,1.35,3,3,3s3-1.35,3-3V37c0,1.1,0.9,2,2,2s2-0.9,2-2v-8.891c7.465-1.742,12.476-4.885,12.476-8.259
		C54.476,19.169,54.26,18.507,53.872,17.868z"/>
	<g>
		<path style="fill:#FBD490;" d="M27,33.048v-3.554c-11.28-0.351-20.494-3.635-22.872-7.627h0c-0.388,0.639-0.604,1.302-0.604,1.983
			c0,4.856,10.366,9.244,23.522,9.644C27.019,33.349,27,33.201,27,33.048z"/>
		<path style="fill:#FBD490;" d="M53.868,21.867C52.33,24.442,47.949,26.721,42,28.109v3.999c7.465-1.742,12.476-4.885,12.476-8.259
			c0-0.681-0.216-1.344-0.604-1.983H53.868z"/>
	</g>
	<path style="fill:#FBD490;" d="M32.577,25.774c-0.553,0-1-0.447-1-1s0.447-1,1-1c9.265,0,16.188-2.776,16.188-5.259
		c0-0.553,0.447-1,1-1s1,0.447,1,1C50.765,23.23,41.394,25.774,32.577,25.774z"/>
	<path style="fill:#F9D70B;" d="M19,23.548h-3c-1.1,0-2-0.9-2-2v-3c0-1.1,0.9-2,2-2h3c1.1,0,2,0.9,2,2v3
		C21,22.648,20.1,23.548,19,23.548z"/>
	<path style="fill:#FBD490;" d="M27,20h-3c-1.1,0-2-0.9-2-2v-3c0-1.1,0.9-2,2-2h3c1.1,0,2,0.9,2,2v3C29,19.1,28.1,20,27,20z"/>
</g>
<g>
</g>
<g>
</g>
<g>
</g>
<g>
</g>
<g>
</g>
<g>
</g>
<g>
</g>
<g>
</g>
<g>
</g>
<g>
</g>
<g>
</g>
<g>
</g>
<g>
</g>
<g>
</g>
<g>
</g>
</svg>
